<svg width="152" height="32" viewBox="0 0 152 32" fill="none" xmlns="http://www.w3.org/2000/svg">
<path d="M10.2278 23.7595C11.3608 23.7595 12.2792 22.8697 12.2792 21.7721C12.2792 20.6745 11.3608 19.7847 10.2278 19.7847C9.09475 19.7847 8.17627 20.6745 8.17627 21.7721C8.17627 22.8697 9.09475 23.7595 10.2278 23.7595Z" stroke="#211F1C" stroke-width="0.814758" stroke-miterlimit="10" stroke-linecap="round"/>
<path d="M9.34521 12.0847H21.755" stroke="#211F1C" stroke-width="0.814487" stroke-miterlimit="10" stroke-linecap="round"/>
<path d="M10.4316 14.4891H21.2126" stroke="#211F1C" stroke-width="0.814487" stroke-miterlimit="10" stroke-linecap="round"/>
<path d="M9.87207 19.784H17.9097C18.79 19.784 19.5742 19.2422 19.8604 18.4353L23.173 9.09871C23.4592 8.29174 24.2426 7.75 25.1237 7.75H27.5335" stroke="#211F1C" stroke-width="0.814758" stroke-miterlimit="10" stroke-linecap="round"/>
<path d="M10.2274 22.0591C10.3911 22.0591 10.5237 21.9306 10.5237 21.7721C10.5237 21.6136 10.3911 21.4851 10.2274 21.4851C10.0638 21.4851 9.93115 21.6136 9.93115 21.7721C9.93115 21.9306 10.0638 22.0591 10.2274 22.0591Z" stroke="#211F1C" stroke-width="0.271591" stroke-miterlimit="10" stroke-linecap="round"/>
<path d="M17.6853 23.7595C18.8183 23.7595 19.7368 22.8697 19.7368 21.7721C19.7368 20.6745 18.8183 19.7847 17.6853 19.7847C16.5523 19.7847 15.6338 20.6745 15.6338 21.7721C15.6338 22.8697 16.5523 23.7595 17.6853 23.7595Z" stroke="#211F1C" stroke-width="0.814758" stroke-miterlimit="10" stroke-linecap="round"/>
<path d="M17.6854 22.0591C17.8491 22.0591 17.9817 21.9306 17.9817 21.7721C17.9817 21.6136 17.8491 21.4851 17.6854 21.4851C17.5218 21.4851 17.3892 21.6136 17.3892 21.7721C17.3892 21.9306 17.5218 22.0591 17.6854 22.0591Z" stroke="#211F1C" stroke-width="0.271591" stroke-miterlimit="10" stroke-linecap="round"/>
<path d="M20.2731 17.2714H9.47744C9.116 17.2714 8.79878 17.0285 8.6995 16.6753L6.86828 10.1773C6.77676 9.85324 7.01643 9.52999 7.34839 9.52999H21.1884" stroke="#211F1C" stroke-width="0.814758" stroke-miterlimit="10" stroke-linecap="round"/>
<path d="M4.75 25C4.75 25 12.6395 22.4138 23.2863 25" stroke="#211F1C" stroke-width="0.75" stroke-miterlimit="10" stroke-linecap="round"/>
<path d="M37.321 24.5V7.04545H49.2358V10.4716H41.5398V14.0511H48.4773V17.4858H41.5398V24.5H37.321ZM50.6223 24.5V11.4091H54.6706V13.7955H54.8069C55.0456 12.9318 55.4348 12.2898 55.9745 11.8693C56.5143 11.4432 57.1422 11.2301 57.8581 11.2301C58.0513 11.2301 58.2501 11.2443 58.4547 11.2727C58.6592 11.2955 58.8495 11.3324 59.0257 11.3835V15.0057C58.8268 14.9375 58.5655 14.8835 58.2416 14.8438C57.9234 14.804 57.6393 14.7841 57.3893 14.7841C56.895 14.7841 56.449 14.8949 56.0513 15.1165C55.6592 15.3324 55.3495 15.6364 55.1223 16.0284C54.9007 16.4148 54.7899 16.8693 54.7899 17.392V24.5H50.6223ZM65.6835 24.7472C64.3141 24.7472 63.1323 24.4773 62.138 23.9375C61.1494 23.392 60.388 22.6165 59.8539 21.6108C59.3255 20.5994 59.0613 19.3977 59.0613 18.0057C59.0613 16.6534 59.3284 15.4716 59.8624 14.4602C60.3965 13.4432 61.1494 12.6534 62.121 12.0909C63.0926 11.5227 64.2374 11.2386 65.5556 11.2386C66.4874 11.2386 67.3397 11.3835 68.1124 11.6733C68.8852 11.9631 69.5528 12.392 70.1153 12.9602C70.6778 13.5284 71.1153 14.2301 71.4278 15.0653C71.7403 15.8949 71.8965 16.8466 71.8965 17.9205V18.9602H60.5187V16.5398H68.0187C68.013 16.0966 67.9079 15.7017 67.7034 15.3551C67.4988 15.0085 67.2176 14.7386 66.8596 14.5455C66.5073 14.3466 66.1011 14.2472 65.6409 14.2472C65.1749 14.2472 64.7573 14.3523 64.388 14.5625C64.0187 14.767 63.7261 15.0483 63.5102 15.4062C63.2943 15.7585 63.1806 16.1591 63.1693 16.608V19.071C63.1693 19.6051 63.2744 20.0739 63.4846 20.4773C63.6948 20.875 63.9931 21.1847 64.3795 21.4062C64.7659 21.6278 65.2261 21.7386 65.7602 21.7386C66.1295 21.7386 66.4647 21.6875 66.7659 21.5852C67.067 21.483 67.3255 21.3324 67.5414 21.1335C67.7573 20.9347 67.9193 20.6903 68.0272 20.4006L71.8539 20.5114C71.6948 21.3693 71.3454 22.1165 70.8056 22.7528C70.2715 23.3835 69.5698 23.875 68.7005 24.2273C67.8312 24.5739 66.8255 24.7472 65.6835 24.7472ZM84.9741 15.4062L81.1474 15.5085C81.1076 15.2358 80.9996 14.9943 80.8235 14.7841C80.6474 14.5682 80.4172 14.4006 80.1332 14.2812C79.8547 14.1562 79.5309 14.0938 79.1616 14.0938C78.6786 14.0938 78.2667 14.1903 77.9258 14.3835C77.5905 14.5767 77.4258 14.8381 77.4315 15.1676C77.4258 15.4233 77.528 15.6449 77.7383 15.8324C77.9542 16.0199 78.3377 16.1705 78.8888 16.2841L81.4116 16.7614C82.7184 17.0114 83.69 17.4261 84.3263 18.0057C84.9684 18.5852 85.2922 19.3523 85.2979 20.3068C85.2922 21.2045 85.0252 21.9858 84.4968 22.6506C83.9741 23.3153 83.2582 23.8324 82.3491 24.2017C81.44 24.5653 80.4002 24.7472 79.2297 24.7472C77.3604 24.7472 75.886 24.3636 74.8065 23.5966C73.7326 22.8239 73.119 21.7898 72.9655 20.4943L77.082 20.392C77.1729 20.8693 77.4087 21.233 77.7894 21.483C78.1701 21.733 78.6559 21.858 79.2468 21.858C79.7809 21.858 80.2155 21.7585 80.5508 21.5597C80.886 21.3608 81.0565 21.0966 81.0621 20.767C81.0565 20.4716 80.9258 20.2358 80.6701 20.0597C80.4144 19.8778 80.0138 19.7358 79.4684 19.6335L77.1843 19.1989C75.8718 18.9602 74.8945 18.5199 74.2525 17.8778C73.6104 17.2301 73.2922 16.4062 73.2979 15.4062C73.2922 14.5312 73.5252 13.7841 73.9968 13.1648C74.4684 12.5398 75.1388 12.0625 76.0082 11.733C76.8775 11.4034 77.903 11.2386 79.0849 11.2386C80.8576 11.2386 82.2553 11.6108 83.278 12.3551C84.3008 13.0937 84.8661 14.1108 84.9741 15.4062ZM91.0374 17.0341V24.5H86.8698V7.04545H90.901V13.8125H91.0459C91.3414 13.0057 91.8243 12.375 92.4948 11.9205C93.1709 11.4659 93.9976 11.2386 94.9749 11.2386C95.8953 11.2386 96.6965 11.4432 97.3783 11.8523C98.0601 12.2557 98.5885 12.8267 98.9635 13.5653C99.3442 14.304 99.5317 15.1676 99.526 16.1562V24.5H95.3584V16.9744C95.3641 16.2472 95.1823 15.679 94.813 15.2699C94.4436 14.8608 93.9238 14.6562 93.2533 14.6562C92.8158 14.6562 92.4294 14.7528 92.0942 14.946C91.7647 15.1335 91.5061 15.4034 91.3186 15.7557C91.1368 16.108 91.0431 16.5341 91.0374 17.0341ZM117.491 13.3693H113.23C113.173 12.9318 113.057 12.5369 112.881 12.1847C112.704 11.8324 112.471 11.5312 112.182 11.2812C111.892 11.0312 111.548 10.8409 111.15 10.7102C110.758 10.5739 110.324 10.5057 109.846 10.5057C109 10.5057 108.27 10.7131 107.656 11.1278C107.048 11.5426 106.579 12.142 106.25 12.9261C105.926 13.7102 105.764 14.6591 105.764 15.7727C105.764 16.9318 105.929 17.9034 106.258 18.6875C106.594 19.4659 107.062 20.054 107.665 20.4517C108.273 20.8437 108.991 21.0398 109.821 21.0398C110.287 21.0398 110.71 20.9801 111.091 20.8608C111.477 20.7415 111.815 20.5682 112.105 20.3409C112.4 20.108 112.642 19.8267 112.829 19.4972C113.023 19.1619 113.156 18.7841 113.23 18.3636L117.491 18.3892C117.417 19.1619 117.193 19.9233 116.818 20.6733C116.449 21.4233 115.94 22.108 115.292 22.7273C114.645 23.3409 113.855 23.8295 112.923 24.1932C111.997 24.5568 110.935 24.7386 109.736 24.7386C108.156 24.7386 106.741 24.392 105.491 23.6989C104.247 23 103.264 21.983 102.542 20.6477C101.821 19.3125 101.46 17.6875 101.46 15.7727C101.46 13.8523 101.827 12.2244 102.56 10.8892C103.292 9.55398 104.284 8.53977 105.534 7.84659C106.784 7.15341 108.185 6.80682 109.736 6.80682C110.792 6.80682 111.77 6.95455 112.667 7.25C113.565 7.53977 114.355 7.96591 115.037 8.52841C115.719 9.08523 116.273 9.76989 116.699 10.5824C117.125 11.3949 117.389 12.3239 117.491 13.3693ZM123.116 24.7216C122.281 24.7216 121.539 24.5824 120.891 24.304C120.249 24.0199 119.741 23.5937 119.366 23.0256C118.996 22.4517 118.812 21.733 118.812 20.8693C118.812 20.142 118.94 19.5284 119.195 19.0284C119.451 18.5284 119.803 18.1222 120.252 17.8097C120.701 17.4972 121.218 17.2614 121.803 17.1023C122.388 16.9375 123.013 16.8267 123.678 16.7699C124.423 16.7017 125.022 16.6307 125.477 16.5568C125.931 16.4773 126.261 16.3665 126.465 16.2244C126.675 16.0767 126.781 15.8693 126.781 15.6023V15.5597C126.781 15.1222 126.63 14.7841 126.329 14.5455C126.028 14.3068 125.621 14.1875 125.11 14.1875C124.559 14.1875 124.116 14.3068 123.781 14.5455C123.445 14.7841 123.232 15.1136 123.141 15.5341L119.298 15.3977C119.411 14.6023 119.704 13.892 120.175 13.267C120.653 12.6364 121.306 12.142 122.136 11.7841C122.971 11.4205 123.974 11.2386 125.144 11.2386C125.979 11.2386 126.749 11.3381 127.454 11.5369C128.158 11.7301 128.772 12.0142 129.295 12.3892C129.817 12.7585 130.221 13.2131 130.505 13.7528C130.795 14.2926 130.94 14.9091 130.94 15.6023V24.5H127.019V22.6761H126.917C126.684 23.1193 126.386 23.4943 126.022 23.8011C125.664 24.108 125.241 24.3381 124.752 24.4915C124.269 24.6449 123.724 24.7216 123.116 24.7216ZM124.403 21.9943C124.852 21.9943 125.255 21.9034 125.613 21.7216C125.977 21.5398 126.266 21.2898 126.482 20.9716C126.698 20.6477 126.806 20.2727 126.806 19.8466V18.6023C126.687 18.6648 126.542 18.7216 126.371 18.7727C126.207 18.8239 126.025 18.8722 125.826 18.9176C125.627 18.9631 125.423 19.0028 125.212 19.0369C125.002 19.071 124.8 19.1023 124.607 19.1307C124.215 19.1932 123.88 19.2898 123.602 19.4205C123.329 19.5511 123.119 19.7216 122.971 19.9318C122.829 20.1364 122.758 20.3807 122.758 20.6648C122.758 21.0966 122.911 21.4261 123.218 21.6534C123.531 21.8807 123.925 21.9943 124.403 21.9943ZM133.008 24.5V11.4091H137.056V13.7955H137.193C137.431 12.9318 137.82 12.2898 138.36 11.8693C138.9 11.4432 139.528 11.2301 140.244 11.2301C140.437 11.2301 140.636 11.2443 140.84 11.2727C141.045 11.2955 141.235 11.3324 141.411 11.3835V15.0057C141.212 14.9375 140.951 14.8835 140.627 14.8438C140.309 14.804 140.025 14.7841 139.775 14.7841C139.281 14.7841 138.835 14.8949 138.437 15.1165C138.045 15.3324 137.735 15.6364 137.508 16.0284C137.286 16.4148 137.176 16.8693 137.176 17.392V24.5H133.008ZM150.628 11.4091V14.4773H142.37V11.4091H150.628ZM144.1 8.27273H148.267V20.3835C148.267 20.6392 148.307 20.8466 148.387 21.0057C148.472 21.1591 148.594 21.2699 148.753 21.3381C148.912 21.4006 149.102 21.4318 149.324 21.4318C149.483 21.4318 149.651 21.4176 149.827 21.3892C150.009 21.3551 150.145 21.3267 150.236 21.304L150.867 24.3125C150.668 24.3693 150.387 24.4403 150.023 24.5256C149.665 24.6108 149.236 24.6648 148.736 24.6875C147.759 24.733 146.921 24.6193 146.222 24.3466C145.529 24.0682 144.997 23.6364 144.628 23.0511C144.264 22.4659 144.088 21.7301 144.1 20.8438V8.27273Z" fill="#211F1C"/>
</svg>
